<svg xmlns="http://www.w3.org/2000/svg" viewBox="0 0 1440 320">
  <path fill="f2f2f2" fill-opacity="0.25" d="M0,0 L1440,0 L1440,320 L0,320"></path>
  <path fill="f2f2f2" fill-opacity="0.25" d="M0,256L30,245.3C60,235,120,213,180,181.3C240,149,300,107,360,117.3C420,128,480,192,540,208C600,224,660,192,720,160C780,128,840,96,900,106.7C960,117,1020,171,1080,170.7C1140,171,1200,117,1260,90.7C1320,64,1380,64,1410,64L1440,64L1440,0L1410,0C1380,0,1320,0,1260,0C1200,0,1140,0,1080,0C1020,0,960,0,900,0C840,0,780,0,720,0C660,0,600,0,540,0C480,0,420,0,360,0C300,0,240,0,180,0C120,0,60,0,30,0L0,0Z"></path>
  <path fill="white" fill-opacity="0.25" d="M0,256L34.3,256C68.6,256,137,256,206,218.7C274.3,181,343,107,411,112C480,117,549,203,617,208C685.7,213,754,139,823,106.7C891.4,75,960,85,1029,112C1097.1,139,1166,181,1234,181.3C1302.9,181,1371,139,1406,117.3L1440,96L1440,320L1405.7,320C1371.4,320,1303,320,1234,320C1165.7,320,1097,320,1029,320C960,320,891,320,823,320C754.3,320,686,320,617,320C548.6,320,480,320,411,320C342.9,320,274,320,206,320C137.1,320,69,320,34,320L0,320Z"></path>
</svg>