<svg xmlns="http://www.w3.org/2000/svg" preserveAspectRatio="none" viewBox="0 0 720 320">
  <defs>
    <linearGradient id="gradient" x1="0" x2="0" y1="0" y2="1">
      <stop offset="0%" style="stop-color: white" />
      <stop offset="75%" style="stop-color: palegreen" />
      <stop offset="100%" style="stop-color: lightgreen" />
    </linearGradient>
  </defs>
  <path fill="url(#gradient)" d="M0,256L34.3,256C68.6,256,137,256,206,218.7C274.3,181,343,107,411,112C480,117,549,203,617,208C685.7,213,754,139,823,106.7C891.4,75,960,85,1029,112C1097.1,139,1166,181,1234,181.3C1302.9,181,1371,139,1406,117.3L1440,96L1440,320L1405.7,320C1371.4,320,1303,320,1234,320C1165.7,320,1097,320,1029,320C960,320,891,320,823,320C754.3,320,686,320,617,320C548.6,320,480,320,411,320C342.9,320,274,320,206,320C137.1,320,69,320,34,320L0,320Z"></path>
</svg>