<svg xmlns="http://www.w3.org/2000/svg" viewBox="0 0 1440 320">
  <path fill="#00cba9" fill-opacity="0.25" d="M0,256L30,245.3C60,235,120,213,180,181.3C240,149,300,107,360,117.3C420,128,480,192,540,208C600,224,660,192,720,160C780,128,840,96,900,106.7C960,117,1020,171,1080,170.7C1140,171,1200,117,1260,90.7C1320,64,1380,64,1410,64L1440,64L1440,0L1410,0C1380,0,1320,0,1260,0C1200,0,1140,0,1080,0C1020,0,960,0,900,0C840,0,780,0,720,0C660,0,600,0,540,0C480,0,420,0,360,0C300,0,240,0,180,0C120,0,60,0,30,0L0,0Z"></path>
  <path fill="#0099ff" fill-opacity="0.25" d="M0,192L30,202.7C60,213,120,235,180,240C240,245,300,235,360,197.3C420,160,480,96,540,106.7C600,117,660,203,720,197.3C780,192,840,96,900,64C960,32,1020,64,1080,80C1140,96,1200,96,1260,80C1320,64,1380,32,1410,16L1440,0L1440,320L1410,320C1380,320,1320,320,1260,320C1200,320,1140,320,1080,320C1020,320,960,320,900,320C840,320,780,320,720,320C660,320,600,320,540,320C480,320,420,320,360,320C300,320,240,320,180,320C120,320,60,320,30,320L0,320Z"></path>
</svg>