<?xml version="1.0" encoding="iso-8859-1"?>
<!-- Generator: Adobe Illustrator 16.0.0, SVG Export Plug-In . SVG Version: 6.00 Build 0)  -->
<!DOCTYPE svg PUBLIC "-//W3C//DTD SVG 1.1//EN" "http://www.w3.org/Graphics/SVG/1.1/DTD/svg11.dtd">
<svg xmlns="http://www.w3.org/2000/svg"
  x="0px" y="0px" width="560px" height="560px"
	viewBox="0 0 560 560" style="enable-background:new 0 0 560 560;"
	xml:space="preserve">
<g>
	<g>
		<circle cx="470.347" cy="281.52" r="49.97"/>
		<path d="M470.347,188.827c-51.113,0-92.693,41.579-92.693,92.693c0,51.115,41.58,92.693,92.693,92.693
			c51.115,0,92.693-41.584,92.693-92.693C563.04,230.406,521.462,188.827,470.347,188.827z M470.347,349.844
			c-37.674,0-68.328-30.648-68.328-68.33c0-37.675,30.654-68.33,68.328-68.33c37.676,0,68.33,30.655,68.33,68.33
			C538.677,319.195,508.022,349.844,470.347,349.844z"/>
		<path d="M281.521,377.652c-51.114,0-92.693,41.58-92.693,92.693c0,51.115,41.579,92.695,92.693,92.695
			c51.115,0,92.693-41.58,92.693-92.695C374.214,419.232,332.636,377.652,281.521,377.652z M328.474,504.312
			c3.586,3.586,3.586,9.395,0,12.98c-1.793,1.793-4.143,2.688-6.494,2.688c-2.35,0-4.699-0.895-6.492-2.688l-33.966-33.965
			l-33.972,33.971c-1.793,1.793-4.143,2.688-6.493,2.688s-4.7-0.895-6.494-2.688c-3.586-3.586-3.586-9.395,0-12.98l33.972-33.973
			l-33.972-33.971c-3.586-3.586-3.586-9.395,0-12.98c3.586-3.586,9.395-3.586,12.98,0l33.979,33.971l33.972-33.971
			c3.586-3.586,9.395-3.586,12.98,0s3.586,9.395,0,12.98l-33.973,33.971L328.474,504.312z"/>
		<rect x="56.825" y="245.651" width="71.739" height="71.738"/>
		<path d="M92.694,188.827c-51.114,0-92.693,41.579-92.693,92.693c0,51.115,41.579,92.693,92.693,92.693
			s92.694-41.578,92.694-92.693C185.388,230.406,143.809,188.827,92.694,188.827z M146.924,326.562c0,5.068-4.113,9.182-9.18,9.182
			H47.645c-5.067,0-9.18-4.113-9.18-9.182v-90.092c0-5.067,4.112-9.18,9.18-9.18h90.099c5.067,0,9.18,4.112,9.18,9.18V326.562z"/>
		<polygon points="240.75,117.474 322.292,117.474 281.521,45.447 		"/>
		<path d="M281.521,0c-51.114,0-92.693,41.58-92.693,92.694s41.579,92.693,92.693,92.693c51.115,0,92.693-41.579,92.693-92.693
			S332.636,0,281.521,0z M345.964,131.28c-1.646,2.821-4.668,4.553-7.932,4.553H225.009c-3.262,0-6.285-1.732-7.932-4.553
			c-1.646-2.821-1.665-6.304-0.061-9.149l56.512-99.842c1.634-2.876,4.688-4.657,7.993-4.657c3.304,0,6.359,1.781,7.994,4.657
			l56.512,99.842C347.636,124.977,347.61,128.459,345.964,131.28z"/>
	</g>
</g>
</svg>
